<?xml version="1.0" standalone="no"?><!DOCTYPE svg PUBLIC "-//W3C//DTD SVG 1.1//EN" "http://www.w3.org/Graphics/SVG/1.1/DTD/svg11.dtd"><svg t="1688715536461" class="icon" viewBox="0 0 1024 1024" version="1.1" xmlns="http://www.w3.org/2000/svg" p-id="1166" xmlns:xlink="http://www.w3.org/1999/xlink" width="200" height="200"><path d="M759.5008 611.9424v-63.2832a59.8016 59.8016 0 0 0-59.7504-59.7504h-156.672V413.0304a161.3312 161.3312 0 1 0-68.864 0v75.8784H317.44a59.8016 59.8016 0 0 0-59.7504 59.7504v62.9248a161.3312 161.3312 0 1 0 61.44 1.1264v-62.3616h378.88l0.3584 61.9008a161.4848 161.4848 0 1 0 61.0816-0.3072z m-350.72-356.5056A99.8912 99.8912 0 1 1 508.672 355.328a99.9936 99.9936 0 0 1-99.8912-99.8912z m-23.2448 515.072A99.8912 99.8912 0 1 1 285.6448 670.72a99.9936 99.9936 0 0 1 99.8912 99.7888zM729.9072 870.4a99.8912 99.8912 0 1 1 99.8912-99.8912A100.0448 100.0448 0 0 1 729.9072 870.4z" fill="#515151" p-id="1167"></path></svg>