<?xml version="1.0" standalone="no"?><!DOCTYPE svg PUBLIC "-//W3C//DTD SVG 1.1//EN" "http://www.w3.org/Graphics/SVG/1.1/DTD/svg11.dtd"><svg t="1688715579607" class="icon" viewBox="0 0 1024 1024" version="1.1" xmlns="http://www.w3.org/2000/svg" p-id="1416" xmlns:xlink="http://www.w3.org/1999/xlink" width="200" height="200"><path d="M707.3792 298.24H316.9792a28.7232 28.7232 0 1 0 0 57.4464h390.4a28.7232 28.7232 0 1 0 0-57.4464zM566.9376 454.8096H316.9792a28.7232 28.7232 0 0 0-28.7232 28.7232 28.7232 28.7232 0 0 0 28.7232 28.7232h249.9584a28.7232 28.7232 0 0 0 28.7232-28.7232 28.7232 28.7232 0 0 0-28.7232-28.7232zM566.9376 599.552H316.9792a28.7232 28.7232 0 1 0 0 57.4464h249.9584a28.7232 28.7232 0 0 0 0-57.4464z" fill="#515151" p-id="1417"></path><path d="M799.3856 119.3472H224.6144a67.7888 67.7888 0 0 0-67.584 67.584v650.24a67.7888 67.7888 0 0 0 67.584 67.584h574.7712a67.7888 67.7888 0 0 0 67.584-67.584v-650.24a67.7888 67.7888 0 0 0-67.584-67.584z m10.24 717.7216a10.24 10.24 0 0 1-10.24 10.24H224.6144a10.24 10.24 0 0 1-10.24-10.24v-650.24a10.24 10.24 0 0 1 10.24-10.24h574.7712a10.24 10.24 0 0 1 10.24 10.24z" fill="#515151" p-id="1418"></path></svg>