<?xml version="1.0" standalone="no"?><!DOCTYPE svg PUBLIC "-//W3C//DTD SVG 1.1//EN" "http://www.w3.org/Graphics/SVG/1.1/DTD/svg11.dtd"><svg t="1688722268300" class="icon" viewBox="0 0 1024 1024" version="1.1" xmlns="http://www.w3.org/2000/svg" p-id="1166" xmlns:xlink="http://www.w3.org/1999/xlink" width="200" height="200"><path d="M194.56 798.464V186.8288H133.5808v672.6144h756.48v-60.9792H194.56z" fill="#515151" p-id="1167"></path><path d="M306.5344 767.6416h53.3504a63.0272 63.0272 0 0 0 62.9248-62.9248V449.5872a62.976 62.976 0 0 0-62.9248-62.9248H306.5344a63.0272 63.0272 0 0 0-62.9248 62.9248v255.1296a63.0272 63.0272 0 0 0 62.9248 62.9248z m-6.6048-318.0544a6.7072 6.7072 0 0 1 6.6048-6.6048h53.3504a6.7072 6.7072 0 0 1 6.6048 6.6048v255.1296a6.7072 6.7072 0 0 1-6.6048 6.6048H306.5344a6.7072 6.7072 0 0 1-6.6048-6.6048zM531.3536 767.6416h53.3504a63.0272 63.0272 0 0 0 62.9248-62.9248V181.1456a63.0272 63.0272 0 0 0-62.9248-62.9248h-53.3504a63.0272 63.0272 0 0 0-62.9248 62.9248v523.5712a63.0272 63.0272 0 0 0 62.9248 62.9248z m-6.6048-586.496a6.7072 6.7072 0 0 1 6.6048-6.6048h53.3504a6.7072 6.7072 0 0 1 6.6048 6.6048v523.5712a6.7072 6.7072 0 0 1-6.6048 6.6048h-53.3504a6.7072 6.7072 0 0 1-6.6048-6.6048zM756.1216 767.6416h53.4016a62.976 62.976 0 0 0 62.8736-62.9248V313.088a62.976 62.976 0 0 0-62.8736-62.9248h-53.4016a63.0272 63.0272 0 0 0-62.9248 62.9248v391.6288a63.0272 63.0272 0 0 0 62.9248 62.9248z m-6.6048-454.5536a6.7072 6.7072 0 0 1 6.6048-6.6048h53.4016a6.656 6.656 0 0 1 6.5536 6.6048v391.6288a6.656 6.656 0 0 1-6.5536 6.6048h-53.4016a6.7072 6.7072 0 0 1-6.6048-6.6048z" fill="#515151" p-id="1168"></path></svg>